<svg xmlns="http://www.w3.org/2000/svg" viewBox="0 0 98.91 26.64">
  <defs>
    <style>
      .a {
        fill: #ffd00c;
      }

      .b {
        fill: #fc5050;
      }

      .c {
        fill: #fff;
      }
    </style>
  </defs>
  <title>Boom-logo-v1</title>
  <path class="a" d="M345.92,215.36s11.27,10.19,5.26,18S345.92,215.36,345.92,215.36Z" transform="translate(-316 -215.36)"/>
  <path class="a" d="M361.46,235.58s-4.31,8-9.76,5.69S361.46,235.58,361.46,235.58Z" transform="translate(-316 -215.36)"/>
  <path class="b" d="M361.32,226.94s-1.6,5.71-5.39,5S361.32,226.94,361.32,226.94Z" transform="translate(-316 -215.36)"/>
  <path class="b" d="M335,228.61s11.68,3.68,9.92,11.46S335,228.61,335,228.61Z" transform="translate(-316 -215.36)"/>
  <path class="c" d="M400.86,241.7l-4.09-14.4h-0.12q0.29,3.68.29,5.71v8.68h-4.79v-20h7.19l4.17,14.19h0.11l4.09-14.19h7.21v20h-5v-8.76q0-.68,0-1.52t0.18-4.09H410l-4,14.37h-5.14Z" transform="translate(-316 -215.36)"/>
  <path class="c" d="M386.08,224q-2.46-2.61-7.23-2.61T371.59,224a9.17,9.17,0,0,0-2.27,4.91c1.11-.59,2-1,2-1a10.09,10.09,0,0,1-2.22,3.92,13.16,13.16,0,0,0,.93,5.06l1.43-.34a15.7,15.7,0,0,1-.88,1.4,7.81,7.81,0,0,0,1,1.36q2.51,2.64,7.21,2.64t7.25-2.62q2.47-2.62,2.47-7.67T386.08,224Zm-4.22,12.06a3.47,3.47,0,0,1-3,1.41q-4,0-4-5.8t4.06-5.85a3.43,3.43,0,0,1,3,1.43A10.22,10.22,0,0,1,381.86,236.07Z" transform="translate(-316 -215.36)"/>
  <path class="c" d="M328,231.23v-0.14c0-.19,1.19-0.59,1.72-1.17-0.91-1.9-1.63-3.32-1.63-3.32a24.39,24.39,0,0,1,2.53,1.06,5.76,5.76,0,0,0,.06-1,3.89,3.89,0,0,0-2-3.62c-1.32-.81-3.35-1.07-6.06-1.07H316v20h7.43a9,9,0,0,0,5.57-1.71,5.24,5.24,0,0,0,2-4.36,5.07,5.07,0,0,0-.59-3A4.92,4.92,0,0,0,328,231.23ZM321,226h1.57c1.7,0,2.54.46,2.54,1.58a1.25,1.25,0,0,1-.64,1.18,3,3,0,0,1-1.8.24H321v-3Zm2,12h-2v-5h1.84a3.13,3.13,0,0,1,2,.7,2.53,2.53,0,0,1,.68,1.85A2.29,2.29,0,0,1,323,238Z" transform="translate(-316 -215.36)"/>
</svg>
